<svg width="90" height="94" viewBox="0 0 90 94" fill="none" xmlns="http://www.w3.org/2000/svg">
<path d="M75.1853 46.9904C84.9768 43.3926 91.3095 37.1774 89.7698 32.4785C88.2417 27.7694 79.4571 26.4556 69.4244 29.2882C75.2179 20.63 76.6796 11.876 72.6721 8.96735C68.6556 6.06318 60.7748 10.1624 54.3288 18.3454C53.9188 7.93968 49.9528 0 45.005 0C40.052 0 36.0815 7.93968 35.6709 18.346C29.2249 10.163 21.3435 6.06382 17.3276 8.96863C13.3169 11.8792 14.7824 20.6319 20.5842 29.2882C10.5458 26.453 1.7593 27.7688 0.230487 32.4779C-1.31048 37.1768 5.02291 43.392 14.8144 46.9904C5.02355 50.5991 -1.31048 56.8226 0.230487 61.5215C1.76506 66.2357 10.5522 67.5457 20.5842 64.7035C14.783 73.3687 13.3169 82.1221 17.3276 85.0218C21.3512 87.9292 29.2307 83.83 35.6709 75.6444C36.0815 86.0565 40.0513 94 45.005 94C49.9528 94 53.9188 86.0565 54.3288 75.6444C60.769 83.8293 68.6492 87.9298 72.6721 85.0218C76.6796 82.1234 75.2186 73.3706 69.4244 64.7022C79.4532 67.5444 88.2353 66.2344 89.7692 61.5228C91.3102 56.8219 84.9761 50.5984 75.1853 46.9904Z" fill="#F45500"/>
</svg>
